<?xml version="1.0" encoding="UTF-8"?>
<svg width="128px" height="129px" viewBox="0 0 128 129" version="1.1" xmlns="http://www.w3.org/2000/svg" xmlns:xlink="http://www.w3.org/1999/xlink">
    <!-- Generator: Sketch 52.4 (67378) - http://www.bohemiancoding.com/sketch -->
    <title>icon-warning</title>
    <desc>Created with Sketch.</desc>
    <g id="Home" stroke="none" stroke-width="1" fill="none" fill-rule="evenodd">
        <g id="Error" transform="translate(-116.000000, -175.000000)">
            <g id="icon-warning" transform="translate(115.839844, 175.839844)">
                <path d="M117.342528,94.892505 L66.7528828,13.3569577 C66.1638785,12.4057765 65.1252646,11.8282848 64.007619,11.8282848 C62.8887288,11.8282848 61.850426,12.4070211 61.2611106,13.3569577 L10.5348717,95.1159096 C9.91661948,96.1125185 9.88519347,97.3664472 10.4567734,98.3910594 C11.0261753,99.4156716 12.1089722,100.051348 13.2801354,100.051348 L114.736969,100.051348 L114.750971,100.051348 C116.535719,100.051348 117.981627,98.6041962 117.981627,96.8206926 C117.979449,96.0972722 117.742976,95.4314143 117.342528,94.892505 Z" id="Path" fill="#3B4461"></path>
                <path d="M60.2632572,66.3324896 L59.2143754,50.6384672 C59.0177295,47.5798769 58.9209623,45.3841015 58.9209623,44.0523856 C58.9209623,42.2396341 59.3960862,40.8251527 60.3447781,39.809875 C61.2947147,38.7911746 62.5473988,38.2846247 64.0972298,38.2846247 C65.976256,38.2846247 67.2336073,38.9343029 67.8658612,40.2336593 C68.4981151,41.5342603 68.8157977,43.4086193 68.8157977,45.8523801 C68.8157977,47.2948648 68.738944,48.7606857 68.5877258,50.2426863 L67.1779117,66.3965862 C67.0254489,68.3197955 66.6981206,69.7937062 66.19406,70.821741 C65.6912439,71.8472867 64.8598549,72.3597484 63.7036269,72.3597484 C62.5231292,72.3597484 61.7044973,71.8650222 61.247109,70.8696579 C60.7872314,69.8774052 60.4589697,68.3639785 60.2632572,66.3324896 Z M63.9002728,87.8919735 C62.5673123,87.8919735 61.4029944,87.4622773 60.4110528,86.5997735 C59.4169331,85.7382031 58.9209623,84.5309467 58.9209623,82.9801823 C58.9209623,81.6251303 59.3960862,80.4723249 60.3447781,79.5211437 C61.2947147,78.5712071 62.4590326,78.0960833 63.8352427,78.0960833 C65.2123862,78.0960833 66.3838606,78.5699625 67.3571333,79.5211437 C68.3291614,80.4710803 68.8157977,81.6248191 68.8157977,82.9801823 C68.8157977,84.5088552 68.3244942,85.7092663 67.3393978,86.5835938 C66.3567907,87.4551209 65.2111416,87.8919735 63.9002728,87.8919735 Z" id="Shape" fill="#2D3449" fill-rule="nonzero"></path>
            </g>
        </g>
    </g>
</svg>