<?xml version="1.0" encoding="UTF-8"?>
<svg width="128px" height="129px" viewBox="0 0 128 129" version="1.1" xmlns="http://www.w3.org/2000/svg" xmlns:xlink="http://www.w3.org/1999/xlink">
    <!-- Generator: Sketch 52.4 (67378) - http://www.bohemiancoding.com/sketch -->
    <title>icon-camera</title>
    <desc>Created with Sketch.</desc>
    <g id="Home" stroke="none" stroke-width="1" fill="none" fill-rule="evenodd" opacity="0.422991071">
        <g id="Initial" transform="translate(-116.000000, -175.000000)">
            <g id="video-box" transform="translate(52.000000, 111.003906)">
                <g id="icon-camera" transform="translate(63.500000, 64.000000)">
                    <rect id="Rectangle" fill="#596E7F" x="26.8118935" y="27.9942357" width="6.54126235" height="8.17657794"></rect>
                    <path d="M90.5892014,36.1708137 L84.0479391,19.8176578 L44.800365,19.8176578 L38.2591026,36.1708137 L23.2125639,36.1708137 C19.7816718,36.1708137 17,38.9524855 17,42.3833776 L17,90.4093258 C17,93.8712889 19.8062015,96.6774904 23.2681646,96.6774904 L105.578504,96.6774904 C109.040467,96.6774904 111.846669,93.8712889 111.846669,90.4093258 L111.846669,42.3833776 C111.846669,38.9524855 109.064997,36.1708137 105.634105,36.1708137 L90.5892014,36.1708137 Z" id="Path" fill="#556080"></path>
                    <circle id="Oval" fill="#394160" cx="100.401095" cy="47.6180228" r="4.90594676"></circle>
                    <circle id="Oval" stroke="#2B313D" stroke-width="2" fill="#424A60" stroke-linecap="round" cx="64.5" cy="64" r="27.800365"></circle>
                    <circle id="Oval" fill="#7383BF" cx="64.5" cy="64" r="17.9884715"></circle>
                    <path d="M64.5,85.287924 C52.7614839,85.287924 43.212076,75.7385161 43.212076,64 C43.212076,52.2614839 52.7614839,42.712076 64.5,42.712076 C76.2385161,42.712076 85.787924,52.2614839 85.787924,64 C85.787924,75.7385161 76.2385161,85.287924 64.5,85.287924 Z" id="Path" fill="#6E799A" fill-rule="nonzero"></path>
                    <path d="M64.5,45.3787467 C54.2322409,45.3787467 45.8787467,53.7322409 45.8787467,64 C45.8787467,74.2677591 54.2322409,82.6212533 64.5,82.6212533 C74.7677591,82.6212533 83.1212533,74.2677591 83.1212533,64 C83.1212533,53.7322409 74.7677591,45.3787467 64.5,45.3787467 Z" id="Path" fill="#7281AE" fill-rule="nonzero" opacity="0"></path>
                </g>
            </g>
        </g>
    </g>
</svg>