<?xml version="1.0" encoding="UTF-8"?>
<svg width="183px" height="28px" viewBox="0 0 183 28" version="1.1" xmlns="http://www.w3.org/2000/svg" xmlns:xlink="http://www.w3.org/1999/xlink">
    <!-- Generator: Sketch 51.3 (57544) - http://www.bohemiancoding.com/sketch -->
    <title>Logos/Swingometer/Horizontal</title>
    <desc>Created with Sketch.</desc>
    <defs>
        <linearGradient x1="12.7776042%" y1="64.6162078%" x2="69.1738005%" y2="-0.41297132%" id="linearGradient-1">
            <stop stop-color="#3EBAFF" offset="0%"></stop>
            <stop stop-color="#FC1CF2" offset="100%"></stop>
        </linearGradient>
        <linearGradient x1="83.9535862%" y1="19.1322544%" x2="32.0038027%" y2="98.500604%" id="linearGradient-2">
            <stop stop-color="#4EFFFF" offset="0%"></stop>
            <stop stop-color="#291EFF" offset="100%"></stop>
        </linearGradient>
        <linearGradient x1="18.649959%" y1="84.2708697%" x2="84.9473925%" y2="12.3941489%" id="linearGradient-3">
            <stop stop-color="#5AFFFF" stop-opacity="0.985535553" offset="0%"></stop>
            <stop stop-color="#FFFFFF" offset="100%"></stop>
        </linearGradient>
    </defs>
    <g id="Symbols" stroke="none" stroke-width="1" fill="none" fill-rule="evenodd">
        <g id="App/TopBar" transform="translate(0.000000, -3.000000)">
            <g id="Logos/Swingometer/Horizontal" transform="translate(0.000000, 3.000000)">
                <g id="Swingometer">
                    <g id="Logos/Swingometer/Sign">
                        <g id="Sign" transform="translate(0.000000, 0.375000)">
                            <path d="M18.937187,1.62829559 L7.1256079,22.0865828 C1.4761848,18.8248743 -0.459416328,11.6010344 2.80229218,5.95168803 C4.98817775,2.16554868 8.95366281,0.0474478179 13.0321811,0.0439034323 C15.0532097,0.0456420144 17.0802487,0.556212904 18.937187,1.62829559 Z" id="Clip-2-Copy" fill="url(#linearGradient-1)"></path>
                            <path d="M5.56683096,27.5655737 C3.67099557,27.5123363 1.76080993,27.0006374 0.00304175205,25.9857856 L11.8146208,5.52749836 C17.4640439,8.78920687 19.3997218,16.0130468 16.1380133,21.6624699 C14.0094508,25.3491839 10.1935143,27.4543381 6.22893514,27.5655738 L5.56683096,27.5655737 Z" id="Clip-5-Copy" fill="url(#linearGradient-2)"></path>
                            <path d="M15.0803101,8.30861277 L7.1256079,22.0865828 C5.8383934,21.3434063 4.74398231,20.3945354 3.85992252,19.3054616 L11.8146208,5.52749836 C13.1018323,6.27067312 14.1962452,7.21954133 15.0803101,8.30861277 Z" id="Combined-Shape-Copy" fill="url(#linearGradient-3)"></path>
                        </g>
                    </g>
                    <g id="Logos/Swingometer/Title" transform="translate(29.000000, 5.000000)" fill="#FFFFFF">
                        <path d="M5.52753125,15.292 C3.75153125,15.292 1.95953125,14.764 0.96753125,13.996 L1.84753125,12.044 C2.79153125,12.732 4.19953125,13.212 5.54353125,13.212 C7.07953125,13.212 7.70353125,12.7 7.70353125,12.012 C7.70353125,9.916 1.19153125,11.356 1.19153125,7.196 C1.19153125,5.292 2.72753125,3.708 5.91153125,3.708 C7.31953125,3.708 8.75953125,4.044 9.79953125,4.7 L8.99953125,6.668 C7.95953125,6.076 6.88753125,5.788 5.89553125,5.788 C4.35953125,5.788 3.76753125,6.364 3.76753125,7.068 C3.76753125,9.132 10.2795312,7.708 10.2795312,11.82 C10.2795312,13.692 8.72753125,15.292 5.52753125,15.292 Z M27.3635313,3.9 L29.8435313,3.9 L26.1795313,15.1 L23.3955313,15.1 L20.9315313,7.516 L18.3875313,15.1 L15.6195313,15.1 L11.9395313,3.9 L14.6275313,3.9 L17.1555313,11.772 L19.7955313,3.9 L22.1955313,3.9 L24.7555313,11.836 L27.3635313,3.9 Z M32.1435313,15.1 L32.1435313,3.9 L34.7355313,3.9 L34.7355313,15.1 L32.1435313,15.1 Z M45.9635313,3.9 L48.5235313,3.9 L48.5235313,15.1 L46.3955313,15.1 L40.8115313,8.3 L40.8115313,15.1 L38.2515313,15.1 L38.2515313,3.9 L40.3955313,3.9 L45.9635313,10.7 L45.9635313,3.9 Z M59.6075313,12.604 L59.6075313,9.324 L61.9755313,9.324 L61.9755313,13.868 C60.7435313,14.796 59.0475313,15.292 57.4475313,15.292 C53.9275313,15.292 51.3355313,12.876 51.3355313,9.5 C51.3355313,6.124 53.9275313,3.708 57.4955313,3.708 C59.4635313,3.708 61.0955313,4.38 62.1835313,5.644 L60.5195313,7.18 C59.7035313,6.316 58.7595313,5.916 57.6235313,5.916 C55.4475313,5.916 53.9595313,7.372 53.9595313,9.5 C53.9595313,11.596 55.4475313,13.084 57.5915313,13.084 C58.2955313,13.084 58.9515313,12.956 59.6075313,12.604 Z M64.7395313,11.596 L64.7395313,9.596 L69.2675313,9.596 L69.2675313,11.596 L64.7395313,11.596 Z M77.7595313,15.292 C74.2235313,15.292 71.6315313,12.828 71.6315313,9.5 C71.6315313,6.172 74.2235313,3.708 77.7595313,3.708 C81.2795313,3.708 83.8875313,6.156 83.8875313,9.5 C83.8875313,12.844 81.2795313,15.292 77.7595313,15.292 Z M77.7595313,13.084 C79.7595313,13.084 81.2635313,11.628 81.2635313,9.5 C81.2635313,7.372 79.7595313,5.916 77.7595313,5.916 C75.7595313,5.916 74.2555313,7.372 74.2555313,9.5 C74.2555313,11.628 75.7595313,13.084 77.7595313,13.084 Z M86.2675314,11.596 L86.2675314,9.596 L90.7955314,9.596 L90.7955314,11.596 L86.2675314,11.596 Z M106.423531,15.1 L103.991531,15.1 L103.975531,8.38 L100.679531,13.916 L99.5115314,13.916 L96.2315314,8.524 L96.2315314,15.1 L93.7995314,15.1 L93.7995314,3.9 L95.9435314,3.9 L100.135531,10.86 L104.263531,3.9 L106.391531,3.9 L106.423531,15.1 Z M112.515531,13.02 L118.611531,13.02 L118.611531,15.1 L109.939531,15.1 L109.939531,3.9 L118.403531,3.9 L118.403531,5.98 L112.515531,5.98 L112.515531,8.412 L117.715531,8.412 L117.715531,10.428 L112.515531,10.428 L112.515531,13.02 Z M123.855531,15.1 L123.855531,6.012 L120.271531,6.012 L120.271531,3.9 L130.031531,3.9 L130.031531,6.012 L126.447531,6.012 L126.447531,15.1 L123.855531,15.1 Z M134.859531,13.02 L140.955531,13.02 L140.955531,15.1 L132.283531,15.1 L132.283531,3.9 L140.747531,3.9 L140.747531,5.98 L134.859531,5.98 L134.859531,8.412 L140.059531,8.412 L140.059531,10.428 L134.859531,10.428 L134.859531,13.02 Z M153.799531,15.1 L151.015531,15.1 L148.855531,11.98 L146.471531,11.98 L146.471531,15.1 L143.879531,15.1 L143.879531,3.9 L148.727531,3.9 C151.719531,3.9 153.591531,5.452 153.591531,7.964 C153.591531,9.644 152.743531,10.876 151.287531,11.5 L153.799531,15.1 Z M150.967531,7.964 C150.967531,6.732 150.167531,6.012 148.583531,6.012 L146.471531,6.012 L146.471531,9.916 L148.583531,9.916 C150.167531,9.916 150.967531,9.18 150.967531,7.964 Z" id="SWING-O-METER-Curves"></path>
                    </g>
                </g>
            </g>
        </g>
    </g>
</svg>