<?xml version="1.0" encoding="UTF-8"?>
<svg width="53px" height="40px" viewBox="0 0 53 40" version="1.1" xmlns="http://www.w3.org/2000/svg" xmlns:xlink="http://www.w3.org/1999/xlink">
    <!-- Generator: Sketch 51.3 (57544) - http://www.bohemiancoding.com/sketch -->
    <title>Logos/WCSLife</title>
    <desc>Created with Sketch.</desc>
    <defs>
        <linearGradient x1="114.821183%" y1="29.4871715%" x2="-34.6119911%" y2="72.6589298%" id="linearGradient-1">
            <stop stop-color="#4EE8FF" offset="0%"></stop>
            <stop stop-color="#1E6CFF" offset="100%"></stop>
        </linearGradient>
    </defs>
    <g id="Symbols" stroke="none" stroke-width="1" fill="none" fill-rule="evenodd">
        <g id="App/TopBar" transform="translate(-268.000000, 0.000000)">
            <g id="Logos/WCSLife" transform="translate(268.000000, 0.000000)">
                <g transform="translate(0.000000, 0.158000)" id="Combined-Shape">
                    <path d="M18.4837996,22.8734935 L19.2644299,24.2891613 L20.8521617,24.6134358 L19.7535991,25.711447 L20.0014926,27.3496399 L18.4837996,26.606235 L17.1243835,27.3496399 L17.3276066,25.7569447 L16.1785829,24.6134358 L17.7599726,24.3081876 L18.4837996,22.8734935 Z M2.32723586,27.7400928 L9.62479102,27.7400928 L9.62479102,30.4740909 L8.39828336,30.4740909 L8.39828336,36.1566157 L11.1755732,36.1566157 L11.1755732,34.0904686 L14.5754922,34.0904686 L14.5754922,38.8906137 L2.32723586,38.8906137 L2.32723586,36.1566157 L3.66183503,36.1566157 L3.66183503,30.4740909 L2.32723586,30.4740909 L2.32723586,27.7400928 Z M15.4039087,31.3129582 L15.4039087,28.2348321 L21.5822205,28.2348321 L21.5822205,35.5963597 L23.0238082,35.5963597 L23.0238082,38.5884539 C22.5214033,38.790574 21.9586106,38.9403027 21.334327,39.0412249 C20.7097677,39.1413198 20.1464234,39.1920567 19.64457,39.1920567 C19.0274558,39.1920567 18.5148484,39.1302901 18.1053691,39.0084114 C17.696717,38.8876357 17.3699608,38.7072994 17.125652,38.4709871 C16.8816188,38.2332961 16.7101063,37.9434895 16.6091841,37.59881 C16.5085377,37.2549577 16.4589039,36.8592656 16.4589039,36.4150426 L16.4589039,31.3129582 L15.4039087,31.3129582 Z M24.5505731,38.8905034 L24.5505731,36.1567811 L25.8633885,36.1567811 L25.8633885,30.4742564 L24.5505731,30.4742564 L24.5505731,27.7399825 L36.9060937,27.7399825 L36.9060937,32.1314756 L33.5268555,32.1314756 L33.5268555,30.4742564 L30.5990096,30.4742564 L30.5990096,31.9373521 L32.7942047,31.9373521 L32.7942047,34.4995619 L30.5990096,34.4995619 L30.5990096,36.1567811 L32.1271808,36.1567811 L32.1271808,38.8905034 L24.5505731,38.8905034 Z M38.4605432,38.8905034 L38.4605432,36.1567811 L39.7518506,36.1567811 L39.7518506,30.4742564 L38.4605432,30.4742564 L38.4605432,27.7399825 L50.7730478,27.7399825 L50.7730478,32.1314756 L47.3935339,32.1314756 L47.3935339,30.4742564 L44.4874717,30.4742564 L44.4874717,31.9373521 L46.6829425,31.9373521 L46.6829425,34.4995619 L44.4874717,34.4995619 L44.4874717,36.1567811 L47.5228576,36.1567811 L47.5228576,34.3048869 L50.9241553,34.3048869 L50.9241553,38.8905034 L38.4605432,38.8905034 Z" fill="url(#linearGradient-1)"></path>
                    <path d="M10.3059192,15.0117936 C9.74649774,15.8158571 9.16526324,16.5897178 8.56188008,17.3327046 C7.9588325,18.076027 7.42155973,18.682766 6.94939059,19.1552708 L3.46164798,18.682766 C3.49654889,17.0397383 3.47037321,15.3916767 3.38312091,13.7399237 C3.29519745,12.0881706 3.07706672,10.5015212 2.72738637,8.98031108 C2.46562949,9.01588317 2.21159109,9.07662419 1.96694908,9.16387648 C1.72197149,9.25146436 1.4511538,9.38301397 1.15416042,9.55751856 L0.262844687,8.24604948 C0.629975488,7.73998618 1.01422116,7.32016842 1.41658847,6.98793853 C1.8182846,6.65604424 2.21628929,6.39361619 2.60959578,6.20098997 C3.00290227,6.00869934 3.37842271,5.8731227 3.73716387,5.79459564 C4.09523386,5.71606857 4.4143759,5.67680504 4.6942544,5.67680504 C5.20098887,5.67680504 5.64698233,5.8167443 6.03156358,6.09595163 C6.41614484,6.37583014 6.67823731,6.83021324 6.81817656,7.46010767 C6.8879784,7.77421593 6.96281402,8.22893461 7.0410055,8.82325696 C7.11986814,9.41791489 7.18564295,10.0907643 7.23799433,10.8428119 C7.2903457,11.5938528 7.32054842,12.398923 7.32960923,13.2550023 C7.33833446,14.1117527 7.32524662,14.9510526 7.2903457,15.7725665 L7.42155973,15.7195439 C7.9282942,14.9852823 8.41321559,14.2382685 8.87699509,13.4778312 C9.33976783,12.7173939 9.73777251,12.0317922 10.0696668,11.4190127 L9.91261269,10.2129175 C9.87737618,10.0209625 9.83811265,9.78504569 9.79448651,9.50516718 C9.75052477,9.22595985 9.6981734,8.94104755 9.63743238,8.65244381 C9.5756846,8.36417566 9.51024538,8.08463274 9.44077913,7.81347946 C9.37030613,7.54266177 9.30050429,7.31144319 9.23070246,7.11848139 C9.19546596,6.97921331 9.20016416,6.86075154 9.2437903,6.7651096 C9.28708086,6.66879649 9.3357408,6.58590682 9.38809217,6.5157694 C9.49313051,6.39361619 9.64582202,6.27951703 9.84683788,6.17481428 C10.0475182,6.06977595 10.2797435,5.98252365 10.541836,5.91238623 C10.804264,5.84325557 11.0794443,5.79023302 11.368048,5.75533211 C11.6563162,5.72043119 11.9318321,5.70264514 12.1939246,5.70264514 C12.4909179,5.72043119 12.7271703,5.79459564 12.9020105,5.92547408 C13.0765151,6.0566881 13.2339048,6.26240216 13.3741796,6.5416095 C13.5137833,6.83927405 13.6446617,7.33292068 13.7671505,8.02355613 C13.8893037,8.71452718 13.9987047,9.50516718 14.0950178,10.3964829 C14.1909953,11.2881342 14.2695224,12.2190491 14.3309346,13.1892275 C14.3920112,14.1597414 14.4399999,15.0732058 14.4752364,15.929285 L14.6588018,15.929285 C15.1306354,15.3181834 15.5588428,14.688289 15.9437596,14.0412797 C16.3280053,13.3952771 16.6518455,12.7828331 16.913938,12.2059612 C17.1763661,11.6290893 17.3726837,11.1045688 17.5042333,10.6327353 C17.6351118,10.1609017 17.700551,9.79377092 17.700551,9.53167846 C17.6831005,9.16387648 17.5387987,8.84540561 17.2683166,8.57391675 C16.9968277,8.30343464 16.538082,8.15913277 15.8914083,8.14134673 C15.8914083,7.84435335 15.9612101,7.54266177 16.1014849,7.23660757 C16.2410886,6.93122454 16.4243184,6.65604424 16.6518455,6.41106665 C16.8787015,6.16608905 17.1454922,5.96507319 17.4515464,5.8073479 C17.757265,5.65029377 18.0941931,5.57176671 18.4609883,5.57176671 C19.3002882,5.57176671 19.9335385,5.79895825 20.3624171,6.25300576 C20.7906245,6.70806003 21.0047282,7.32855806 21.0047282,8.11550663 C21.0047282,8.95447098 20.7728385,9.87229798 20.3100657,10.8683165 C19.8466218,11.8653417 19.2694143,12.8657228 18.5791145,13.8714733 C17.888479,14.8768881 17.1411296,15.8380057 16.3374017,16.7554971 C15.5330027,17.6733241 14.7987411,18.473025 14.1346169,19.1552708 L10.6468743,18.682766 C10.6294238,18.246169 10.6116378,17.7125877 10.5941873,17.0833644 C10.5767369,16.4544767 10.5331107,15.7635057 10.4633089,15.0117936 L10.3059192,15.0117936 Z M25.6108103,19.0765088 C24.06376,19.0765088 22.9254532,18.6483014 22.1958898,17.7912154 C21.4656552,16.9348006 21.0743622,15.7636064 21.0220109,14.2776327 C20.9693239,12.7913234 21.3190043,11.4063611 22.0707163,10.1214033 C22.8220928,8.83610989 23.8536834,7.73975127 25.1648168,6.82997833 C26.4410494,6.00880002 27.6035184,5.5973719 28.6525595,5.5973719 C29.3693706,5.5973719 29.9724182,5.6725431 30.4620378,5.820872 C30.9509862,5.96953648 31.3446283,6.1574645 31.6419572,6.38465605 C31.9389506,6.61218318 32.1533899,6.8564896 32.2842684,7.11858206 C32.4154824,7.38067453 32.4809216,7.61726248 32.4809216,7.82700356 C32.4809216,8.01895861 32.4369599,8.22903528 32.3500432,8.45622683 C32.2621197,8.68308279 32.1094282,8.89819325 31.8909619,9.09887353 C31.67216,9.2995538 31.3751666,9.47439397 30.9996461,9.62305845 C30.6234545,9.77138735 30.155648,9.87206307 29.5965622,9.92475004 C29.5616612,9.47036694 29.4918594,9.10726317 29.3878278,8.83610989 C29.2837962,8.5652922 29.1666768,8.36024931 29.0364695,8.22031005 C28.9059267,8.0803708 28.7666586,7.98842031 28.6193365,7.94479416 C28.4713432,7.90116801 28.3454985,7.87901935 28.2414669,7.87901935 C27.9461515,7.87901935 27.6770117,7.97130543 27.433712,8.15487083 C27.1900768,8.33810065 26.9645632,8.58744085 26.7565,8.90188469 C26.5474301,9.21666412 26.3605088,9.57943231 26.1957362,9.99018925 C26.0306281,10.4012818 25.8920312,10.8204284 25.7786032,11.2489714 C25.6658464,11.6775144 25.5789297,12.1010236 25.5181886,12.5208413 C25.4574476,12.9403235 25.4272449,13.33363 25.4272449,13.7004252 C25.4272449,14.609527 25.5144972,15.2874102 25.6893374,15.7330681 C25.8638419,16.1787259 26.1964074,16.4015548 26.686027,16.4015548 C26.8779821,16.4015548 27.0833605,16.3800774 27.3021624,16.33578 C27.5202932,16.2928251 27.7649352,16.2049016 28.036424,16.0736876 C28.3072417,15.9428091 28.6132959,15.7683046 28.954251,15.5495026 C29.2952062,15.3310363 29.6925397,15.0384056 30.1472584,14.6712748 L31.3533535,15.9820727 C31.0036732,16.4015548 30.6060041,16.799224 30.1603462,17.17508 C29.7146883,17.5512716 29.2334584,17.8791389 28.7183343,18.1583462 C28.202539,18.4382247 27.6780185,18.6610536 27.1447727,18.8275042 C26.6111914,18.9929479 26.1000943,19.0765088 25.6108103,19.0765088 Z M39.7761865,5.72895507 C40.2305696,5.72895507 40.7024031,5.77325238 41.1923583,5.86050468 C41.6816423,5.94809256 42.1269646,6.08299802 42.5296675,6.26656342 C42.9313636,6.45012883 43.2592309,6.6907438 43.5129337,6.98773718 C43.7659654,7.28506615 43.8931524,7.65186137 43.8931524,8.08912959 C43.8931524,8.29920626 43.836774,8.51330996 43.723346,8.73177628 C43.6102536,8.9502426 43.4360846,9.15092287 43.2011746,9.33448827 C42.965929,9.51805367 42.6746405,9.67175194 42.3263025,9.79356957 C41.9779645,9.91572278 41.5692211,9.9858602 41.0990655,10.0029751 C40.9946983,9.54859198 40.8597928,9.17307153 40.6943491,8.87607815 C40.5285697,8.57908477 40.3460111,8.34283241 40.146002,8.16765665 C39.9459929,7.99348765 39.7369229,7.87066327 39.5191278,7.80052585 C39.3016682,7.7310596 39.0801817,7.69548751 38.8536613,7.69548751 C38.5056589,7.69548751 38.239875,7.78341098 38.0573163,7.95791556 C37.8744221,8.13275573 37.7831428,8.34283241 37.7831428,8.58747441 C37.7831428,8.86701734 37.9354987,9.12944539 38.239875,9.37375181 C38.5449224,9.6187294 38.9234631,9.87645925 39.3758327,10.1472769 C39.8278667,10.4184302 40.324198,10.7026713 40.864491,11.0000003 C41.4041129,11.2969937 41.9004442,11.624861 42.3524782,11.9832665 C42.8048478,12.3416721 43.1833885,12.7480664 43.488436,13.2021139 C43.7931478,13.6571682 43.9455037,14.1729635 43.9455037,14.7494998 C43.9455037,15.2918064 43.8099271,15.8159913 43.5391094,16.3230613 C43.2679561,16.8301314 42.8571992,17.2798163 42.3068386,17.6731228 C41.7561424,18.0667649 41.0742321,18.3859069 40.2614435,18.6302133 C39.4483192,18.8751909 38.5083435,18.9973441 37.4425232,18.9973441 C36.7777279,18.9973441 36.144142,18.9409657 35.5410944,18.8275377 C34.9380468,18.7137742 34.4091637,18.5385984 33.9547806,18.302346 C33.4997264,18.0667649 33.1329311,17.7654089 32.8533882,17.3982781 C32.5735097,17.0304761 32.433906,16.6029399 32.433906,16.1129847 C32.433906,15.6065858 32.6654602,15.1431419 33.1285685,14.7233241 C33.5916768,14.3038419 34.2601636,14.0591999 35.1347001,13.9893981 C35.1692654,14.3910942 35.2877272,14.7625876 35.488743,15.1038783 C35.6897589,15.4444979 35.9384279,15.7421624 36.2360925,15.9951941 C36.5330859,16.2485613 36.8565905,16.4499128 37.2062709,16.5985772 C37.5559512,16.7472417 37.905296,16.8214062 38.2549763,16.8214062 C38.6747941,16.8214062 38.9936005,16.7294557 39.2124024,16.5458903 C39.4305332,16.3623249 39.5402697,16.1220455 39.5402697,15.8243809 C39.5402697,15.5800745 39.3999949,15.3394595 39.1204519,15.1038783 C38.8405734,14.867626 38.4868661,14.6182858 38.0586587,14.3561933 C37.6297801,14.0941008 37.1670073,13.8148935 36.6686625,13.517229 C36.1706533,13.2202356 35.7072094,12.9010935 35.279002,12.5601384 C34.8501234,12.2188477 34.496416,11.8429917 34.2172087,11.4329059 C33.9373302,11.0218134 33.7977265,10.5627321 33.7977265,10.055662 C33.7977265,9.42677435 33.9678685,8.84553985 34.3088236,8.31195852 C34.6494431,7.77904836 35.0954366,7.31996707 35.6461328,6.93505022 C36.1964934,6.55080455 36.8300793,6.25314 37.5468904,6.04373449 C38.2637015,5.8339934 39.0066884,5.72895507 39.7761865,5.72895507 Z M48.1171701,12.9402564 L47.8550776,2.42467718 C47.8550776,2.18037076 47.9030664,1.92264091 47.9993795,1.65115204 C48.0950214,1.38066994 48.2393233,1.13132973 48.4316139,0.904138184 C48.6242401,0.677282223 48.8776074,0.488683036 49.1923868,0.340354138 C49.5071662,0.191689655 49.8826867,0.117525206 50.3199549,0.117525206 C51.0538809,0.117525206 51.6002145,0.300755021 51.9586201,0.667885822 C52.3170256,1.03501662 52.496564,1.45483439 52.496564,1.92700352 C52.496564,2.11895857 52.4700527,2.30252397 52.4177014,2.47736414 L49.6383803,12.9402564 L48.1171701,12.9402564 Z M48.6416906,14.0154731 C49.3756166,14.0154731 49.9353736,14.2248786 50.3199549,14.6446964 C50.703865,15.063843 50.8968268,15.5980955 50.8968268,16.2444336 C50.8968268,17.1182989 50.6343987,17.8220222 50.1102138,18.3552679 C49.5856933,18.8881781 48.9125083,19.1553043 48.0909944,19.1553043 C47.3043814,19.1553043 46.7315366,18.9452277 46.373131,18.5260811 C46.0147254,18.1062633 45.8358582,17.5817428 45.8358582,16.9521839 C45.8358582,16.5679383 45.9100227,16.1964448 46.0586871,15.8380393 C46.207016,15.4792981 46.4036693,15.1651899 46.6489825,14.893701 C46.8936245,14.6232189 47.1862552,14.408444 47.5272104,14.2510543 C47.8678299,14.0940002 48.2393233,14.0154731 48.6416906,14.0154731 Z" fill="#FFFFFF"></path>
                </g>
            </g>
        </g>
    </g>
</svg>