<?xml version="1.0" encoding="UTF-8"?>
<svg width="32px" height="32px" viewBox="0 0 32 32" version="1.1" xmlns="http://www.w3.org/2000/svg" xmlns:xlink="http://www.w3.org/1999/xlink">
    <!-- Generator: Sketch 52.4 (67378) - http://www.bohemiancoding.com/sketch -->
    <title>spinner</title>
    <desc>Created with Sketch.</desc>
    <g id="Home" stroke="none" stroke-width="1" fill="none" fill-rule="evenodd" opacity="0.79985119">
        <g id="Initial" transform="translate(-164.000000, -223.000000)" fill="#A6ACBF">
            <g id="video-box" transform="translate(52.000000, 111.003906)">
                <g id="spinner" transform="translate(112.000000, 112.000000)">
                    <path d="M16.2520898,8.45190098 L16.2520898,8.45190098 C15.5137252,8.45190098 14.9096087,7.84778449 14.9096087,7.10941988 L14.9096087,1.73949546 C14.9096087,1.00113085 15.5137252,0.397014356 16.2520898,0.397014356 L16.2520898,0.397014356 C16.9904544,0.397014356 17.5945709,1.00113085 17.5945709,1.73949546 L17.5945709,7.10941988 C17.5945709,7.84778449 16.9904544,8.45190098 16.2520898,8.45190098" id="Fill-2" opacity="0.65"></path>
                    <path d="M20.0557862,9.47111264 L20.0557862,9.47111264 C19.4163177,9.10193033 19.1952558,8.27675195 19.5644381,7.63728345 L22.2494004,2.9869289 C22.6185827,2.3474604 23.443761,2.12639851 24.0832295,2.49558082 L24.0832295,2.49558082 C24.722698,2.86476312 24.9437599,3.68994151 24.5745776,4.32941001 L21.8896154,8.97976455 C21.5204331,9.61923305 20.6952547,9.84029494 20.0557862,9.47111264" id="Fill-4" opacity="0.75"></path>
                    <path d="M22.840271,12.2555974 L22.840271,12.2555974 C22.4710887,11.6161289 22.6921506,10.7909506 23.3316191,10.4217683 L27.9819737,7.73680605 C28.6214422,7.36762374 29.4466206,7.58868563 29.8158029,8.22815413 L29.8158029,8.22815413 C30.1849852,8.86762263 29.9639233,9.69280102 29.3244548,10.0619833 L24.6741002,12.7469455 C24.0346317,13.1161278 23.2094533,12.8950659 22.840271,12.2555974" id="Fill-6" opacity="0.85"></path>
                    <path d="M23.8594827,16.0592939 L23.8594827,16.0592939 C23.8594827,15.3209293 24.4635992,14.7168128 25.2019638,14.7168128 L30.5718882,14.7168128 C31.3102528,14.7168128 31.9143693,15.3209293 31.9143693,16.0592939 L31.9143693,16.0592939 C31.9143693,16.7976585 31.3102528,17.401775 30.5718882,17.401775 L25.2019638,17.401775 C24.4635992,17.401775 23.8594827,16.7976585 23.8594827,16.0592939" id="Fill-8" opacity="0.9"></path>
                    <path d="M24.6741002,19.3716423 L29.3244548,22.0566045 C29.9639233,22.4257868 30.1849852,23.2509652 29.8158029,23.8904337 C29.4466206,24.5299022 28.6214422,24.7509641 27.9819737,24.3817818 L23.3316191,21.6968196 C22.6921506,21.3276373 22.4710887,20.5024589 22.840271,19.8629904 C23.2094533,19.2235219 24.0346317,19.00246 24.6741002,19.3716423 Z" id="Fill-10" opacity="0.0836495536"></path>
                    <path d="M20.0557862,22.6474752 L20.0557862,22.6474752 C20.6952547,22.2782929 21.5204331,22.4993548 21.8896154,23.1388233 L24.5745776,27.7891778 C24.9437599,28.4286463 24.722698,29.2538247 24.0832295,29.623007 L24.0832295,29.623007 C23.443761,29.9921893 22.6185827,29.7711274 22.2494004,29.1316589 L19.5644381,24.4813044 C19.1952558,23.8418359 19.4163177,23.0166575 20.0557862,22.6474752" id="Fill-12" opacity="0.149553571"></path>
                    <path d="M16.2520898,23.6666868 L16.2520898,23.6666868 C16.9904544,23.6666868 17.5945709,24.2708033 17.5945709,25.0091679 L17.5945709,30.3790924 C17.5945709,31.117457 16.9904544,31.7215735 16.2520898,31.7215735 L16.2520898,31.7215735 C15.5137252,31.7215735 14.9096087,31.117457 14.9096087,30.3790924 L14.9096087,25.0091679 C14.9096087,24.2708033 15.5137252,23.6666868 16.2520898,23.6666868" id="Fill-14" opacity="0.249753534"></path>
                    <path d="M12.4483933,22.6474752 L12.4483933,22.6474752 C13.0878618,23.0166575 13.3089237,23.8418359 12.9397414,24.4813044 L10.2547792,29.1316589 C9.88559688,29.7711274 9.06041849,29.9921893 8.42094999,29.623007 L8.42094999,29.623007 C7.78148149,29.2538247 7.5604196,28.4286463 7.92960191,27.7891778 L10.6145641,23.1388233 C10.9837464,22.4993548 11.8089248,22.2782929 12.4483933,22.6474752" id="Fill-16" opacity="0.35"></path>
                    <path d="M9.6639085,19.8629904 L9.6639085,19.8629904 C10.0330908,20.5024589 9.81202891,21.3276373 9.17256041,21.6968196 L4.52220587,24.3817818 C3.88273737,24.7509641 3.05755898,24.5299022 2.68837668,23.8904337 L2.68837668,23.8904337 C2.31919437,23.2509652 2.54025626,22.4257868 3.17972476,22.0566045 L7.83007931,19.3716423 C8.46954781,19.00246 9.29472619,19.2235219 9.6639085,19.8629904" id="Fill-18" opacity="0.4"></path>
                    <path d="M8.64469684,16.0592939 L8.64469684,16.0592939 C8.64469684,16.7976585 8.04058035,17.401775 7.30221574,17.401775 L1.93229132,17.401775 C1.19392671,17.401775 0.589810215,16.7976585 0.589810215,16.0592939 L0.589810215,16.0592939 C0.589810215,15.3209293 1.19392671,14.7168128 1.93229132,14.7168128 L7.30221574,14.7168128 C8.04058035,14.7168128 8.64469684,15.3209293 8.64469684,16.0592939" id="Fill-20" opacity="0.45"></path>
                    <path d="M9.6639085,12.2555974 L9.6639085,12.2555974 C9.29472619,12.8950659 8.46954781,13.1161278 7.83007931,12.7469455 L3.17972476,10.0619833 C2.54025626,9.69280102 2.31919437,8.86762263 2.68837668,8.22815413 L2.68837668,8.22815413 C3.05755898,7.58868563 3.88273737,7.36762374 4.52220587,7.73680605 L9.17256041,10.4217683 C9.81202891,10.7909506 10.0330908,11.6161289 9.6639085,12.2555974" id="Fill-22" opacity="0.5"></path>
                    <path d="M12.4483933,9.47111264 L12.4483933,9.47111264 C11.8089248,9.84029494 10.9837464,9.61923305 10.6145641,8.97976455 L7.92960191,4.32941001 C7.5604196,3.68994151 7.78148149,2.86476312 8.42094999,2.49558082 L8.42094999,2.49558082 C9.06041849,2.12639851 9.88559688,2.3474604 10.2547792,2.9869289 L12.9397414,7.63728345 C13.3089237,8.27675195 13.0878618,9.10193033 12.4483933,9.47111264" id="Fill-24" opacity="0.55"></path>
                </g>
            </g>
        </g>
    </g>
</svg>